<svg width="334" height="450" viewBox="0 0 334 450" fill="none" xmlns="http://www.w3.org/2000/svg">
  <path d="M302 -177C302 -177 328 -125.361 328 -86C328 -46.6388 302 -34.3612 302 5.00001C302 44.3612 328 56.6388 328 96C328 135.361 302 147.639 302 187C302 226.361 328 238.639 328 278C328 317.361 302 329.639 302 369C302 408.361 328 420.639 328 460C328 499.361 302 551 302 551" stroke="#2C80FF" stroke-width="11" stroke-linecap="round" />
  <path d="M228 -177C228 -177 254 -125.361 254 -86C254 -46.6388 228 -34.3612 228 5.00001C228 44.3612 254 56.6388 254 96C254 135.361 228 147.639 228 187C228 226.361 254 238.639 254 278C254 317.361 228 329.639 228 369C228 408.361 254 420.639 254 460C254 499.361 228 551 228 551" stroke="#2C80FF" stroke-width="11" stroke-linecap="round" />
  <path d="M154 -177C154 -177 180 -125.361 180 -86C180 -46.6388 154 -34.3612 154 5.00001C154 44.3612 180 56.6388 180 96C180 135.361 154 147.639 154 187C154 226.361 180 238.639 180 278C180 317.361 154 329.639 154 369C154 408.361 180 420.639 180 460C180 499.361 154 551 154 551" stroke="#2C80FF" stroke-width="11" stroke-linecap="round" />
  <path d="M80 -177C80 -177 106 -125.361 106 -86C106 -46.6388 80 -34.3612 80 5.00001C80 44.3612 106 56.6388 106 96C106 135.361 80 147.639 80 187C80 226.361 106 238.639 106 278C106 317.361 80 329.639 80 369C80 408.361 106 420.639 106 460C106 499.361 80 551 80 551" stroke="#2C80FF" stroke-width="11" stroke-linecap="round" />
  <path d="M6 -177C6 -177 32 -125.361 32 -86C32 -46.6388 5.99999 -34.3612 5.99999 5.00001C5.99999 44.3612 32 56.6388 32 96C32 135.361 5.99998 147.639 5.99998 187C5.99998 226.361 32 238.639 32 278C32 317.361 5.99998 329.639 5.99997 369C5.99997 408.361 32 420.639 32 460C32 499.361 5.99997 551 5.99997 551" stroke="#2C80FF" stroke-width="11" stroke-linecap="round" />
</svg>